<svg width="40" height="40" viewBox="0 0 40 40" fill="none" xmlns="http://www.w3.org/2000/svg">
<mask id="path-1-inside-1_15_320" fill="white">
<path d="M0 10C0 4.47715 4.47715 0 10 0H30C35.5228 0 40 4.47715 40 10V30C40 35.5228 35.5228 40 30 40H10C4.47715 40 0 35.5228 0 30V10Z"/>
</mask>
<path d="M0 10C0 4.47715 4.47715 0 10 0H30C35.5228 0 40 4.47715 40 10V30C40 35.5228 35.5228 40 30 40H10C4.47715 40 0 35.5228 0 30V10Z" fill="#3CAB8C" fill-opacity="0.2"/>
<path d="M10 0V1H30V0V-1H10V0ZM40 10H39V30H40H41V10H40ZM30 40V39H10V40V41H30V40ZM0 30H1V10H0H-1V30H0ZM10 40V39C5.02944 39 1 34.9706 1 30H0H-1C-1 36.0751 3.92487 41 10 41V40ZM40 30H39C39 34.9706 34.9706 39 30 39V40V41C36.0751 41 41 36.0751 41 30H40ZM30 0V1C34.9706 1 39 5.02944 39 10H40H41C41 3.92487 36.0751 -1 30 -1V0ZM10 0V-1C3.92487 -1 -1 3.92487 -1 10H0H1C1 5.02944 5.02944 1 10 1V0Z" fill="#3CAB8C" fill-opacity="0.3" mask="url(#path-1-inside-1_15_320)"/>
<path d="M20 16.6667C24.1421 16.6667 27.5 15.5474 27.5 14.1667C27.5 12.786 24.1421 11.6667 20 11.6667C15.8579 11.6667 12.5 12.786 12.5 14.1667C12.5 15.5474 15.8579 16.6667 20 16.6667Z" stroke="#3CAB8C" stroke-width="1.66667" stroke-linecap="round" stroke-linejoin="round"/>
<path d="M12.5 14.1667V25.8334C12.5 26.4964 13.2902 27.1323 14.6967 27.6011C16.1032 28.07 18.0109 28.3334 20 28.3334C21.9891 28.3334 23.8968 28.07 25.3033 27.6011C26.7098 27.1323 27.5 26.4964 27.5 25.8334V14.1667" stroke="#3CAB8C" stroke-width="1.66667" stroke-linecap="round" stroke-linejoin="round"/>
<path d="M12.5 20C12.5 20.663 13.2902 21.2989 14.6967 21.7678C16.1032 22.2366 18.0109 22.5 20 22.5C21.9891 22.5 23.8968 22.2366 25.3033 21.7678C26.7098 21.2989 27.5 20.663 27.5 20" stroke="#3CAB8C" stroke-width="1.66667" stroke-linecap="round" stroke-linejoin="round"/>
</svg>
