<svg width="40" height="40" viewBox="0 0 40 40" fill="none" xmlns="http://www.w3.org/2000/svg">
<mask id="path-1-inside-1_15_330" fill="white">
<path d="M0 10C0 4.47715 4.47715 0 10 0H30C35.5228 0 40 4.47715 40 10V30C40 35.5228 35.5228 40 30 40H10C4.47715 40 0 35.5228 0 30V10Z"/>
</mask>
<path d="M0 10C0 4.47715 4.47715 0 10 0H30C35.5228 0 40 4.47715 40 10V30C40 35.5228 35.5228 40 30 40H10C4.47715 40 0 35.5228 0 30V10Z" fill="#3CAB8C" fill-opacity="0.2"/>
<path d="M10 0V1H30V0V-1H10V0ZM40 10H39V30H40H41V10H40ZM30 40V39H10V40V41H30V40ZM0 30H1V10H0H-1V30H0ZM10 40V39C5.02944 39 1 34.9706 1 30H0H-1C-1 36.0751 3.92487 41 10 41V40ZM40 30H39C39 34.9706 34.9706 39 30 39V40V41C36.0751 41 41 36.0751 41 30H40ZM30 0V1C34.9706 1 39 5.02944 39 10H40H41C41 3.92487 36.0751 -1 30 -1V0ZM10 0V-1C3.92487 -1 -1 3.92487 -1 10H0H1C1 5.02944 5.02944 1 10 1V0Z" fill="#3CAB8C" fill-opacity="0.3" mask="url(#path-1-inside-1_15_330)"/>
<path d="M22.5002 11.6667H15.0002C14.5581 11.6667 14.1342 11.8423 13.8217 12.1548C13.5091 12.4674 13.3335 12.8913 13.3335 13.3334V26.6667C13.3335 27.1087 13.5091 27.5326 13.8217 27.8452C14.1342 28.1578 14.5581 28.3334 15.0002 28.3334H25.0002C25.4422 28.3334 25.8661 28.1578 26.1787 27.8452C26.4912 27.5326 26.6668 27.1087 26.6668 26.6667V15.8334L22.5002 11.6667Z" stroke="#3CAB8C" stroke-width="1.66667" stroke-linecap="round" stroke-linejoin="round"/>
<path d="M21.6665 11.6667V15C21.6665 15.442 21.8421 15.866 22.1547 16.1785C22.4672 16.4911 22.8911 16.6667 23.3332 16.6667H26.6665" stroke="#3CAB8C" stroke-width="1.66667" stroke-linecap="round" stroke-linejoin="round"/>
<path d="M17.5 22.5L19.1667 24.1666L22.5 20.8333" stroke="#3CAB8C" stroke-width="1.66667" stroke-linecap="round" stroke-linejoin="round"/>
</svg>
