<svg width="40" height="40" viewBox="0 0 40 40" fill="none" xmlns="http://www.w3.org/2000/svg">
<mask id="path-1-inside-1_15_340" fill="white">
<path d="M0 10C0 4.47715 4.47715 0 10 0H30C35.5228 0 40 4.47715 40 10V30C40 35.5228 35.5228 40 30 40H10C4.47715 40 0 35.5228 0 30V10Z"/>
</mask>
<path d="M0 10C0 4.47715 4.47715 0 10 0H30C35.5228 0 40 4.47715 40 10V30C40 35.5228 35.5228 40 30 40H10C4.47715 40 0 35.5228 0 30V10Z" fill="#3CAB8C" fill-opacity="0.2"/>
<path d="M10 0V1H30V0V-1H10V0ZM40 10H39V30H40H41V10H40ZM30 40V39H10V40V41H30V40ZM0 30H1V10H0H-1V30H0ZM10 40V39C5.02944 39 1 34.9706 1 30H0H-1C-1 36.0751 3.92487 41 10 41V40ZM40 30H39C39 34.9706 34.9706 39 30 39V40V41C36.0751 41 41 36.0751 41 30H40ZM30 0V1C34.9706 1 39 5.02944 39 10H40H41C41 3.92487 36.0751 -1 30 -1V0ZM10 0V-1C3.92487 -1 -1 3.92487 -1 10H0H1C1 5.02944 5.02944 1 10 1V0Z" fill="#3CAB8C" fill-opacity="0.3" mask="url(#path-1-inside-1_15_340)"/>
<path d="M11.7181 20.29C11.6487 20.1029 11.6487 19.8971 11.7181 19.71C12.3945 18.0699 13.5427 16.6675 15.0171 15.6807C16.4915 14.694 18.2256 14.1672 19.9998 14.1672C21.7739 14.1672 23.5081 14.694 24.9825 15.6807C26.4568 16.6675 27.605 18.0699 28.2814 19.71C28.3509 19.8971 28.3509 20.1029 28.2814 20.29C27.605 21.9301 26.4568 23.3325 24.9825 24.3192C23.5081 25.306 21.7739 25.8328 19.9998 25.8328C18.2256 25.8328 16.4915 25.306 15.0171 24.3192C13.5427 23.3325 12.3945 21.9301 11.7181 20.29Z" stroke="#3CAB8C" stroke-width="1.66667" stroke-linecap="round" stroke-linejoin="round"/>
<path d="M20 22.5C21.3807 22.5 22.5 21.3807 22.5 20C22.5 18.6193 21.3807 17.5 20 17.5C18.6193 17.5 17.5 18.6193 17.5 20C17.5 21.3807 18.6193 22.5 20 22.5Z" stroke="#3CAB8C" stroke-width="1.66667" stroke-linecap="round" stroke-linejoin="round"/>
</svg>
