<svg width="157" height="40" viewBox="0 0 157 40" fill="none" xmlns="http://www.w3.org/2000/svg">
<path d="M30 0C35.5228 0 40 4.47715 40 10V30C40 35.5228 35.5228 40 30 40H10C4.47715 40 0 35.5228 0 30V10C0 4.47715 4.47715 0 10 0H30ZM20 9C19.4832 9 18.9837 9.18483 18.5908 9.52051L18.582 9.52734C17.0535 10.8626 14.9585 11.8678 13.3213 11.9883L13 12C12.4697 12 11.961 12.211 11.5859 12.5859C11.211 12.9609 11.0001 13.4697 11 14V21L11.0117 21.5117C11.1252 24.0283 12.0778 25.9903 13.5557 27.5039C15.0996 29.0851 17.172 30.1325 19.3213 30.877V30.8779C19.3228 30.8785 19.3246 30.8783 19.3262 30.8789C19.3321 30.8809 19.3379 30.8837 19.3438 30.8857V30.8848C19.7688 31.0373 20.233 31.0425 20.6611 30.8975L20.6689 30.8945C22.8204 30.1446 24.8988 29.0925 26.4463 27.5049C28.021 25.8893 29 23.7641 29 21V14C28.9999 13.4697 28.789 12.9609 28.4141 12.5859C28.039 12.211 27.5303 12 27 12C25.3229 12 23.0575 10.9608 21.418 9.52734L21.4092 9.52051C21.0163 9.18483 20.5168 9 20 9ZM20 11C20.0403 11 20.0796 11.014 20.1104 11.04C21.9706 12.6634 24.6805 14 27 14V21C27 23.2358 26.229 24.8615 25.0137 26.1084C23.7728 27.3815 22.0236 28.3022 20.0186 29.002C20.0113 28.9993 20.0034 28.9976 19.9961 28.9951C17.9836 28.3001 16.2295 27.3796 14.9863 26.1064C13.8465 24.9389 13.0978 23.4376 13.0088 21.4121L13 21V14C15.3201 14 18.0393 12.6524 19.8887 11.04L19.8896 11.041C19.9204 11.0147 19.9595 11 20 11Z" fill="#6B7C4F"/>
<path d="M52.96 26.912C52.1813 26.912 51.4773 26.7787 50.848 26.512C50.2293 26.2453 49.7387 25.8613 49.376 25.36C49.0133 24.8587 48.8267 24.2667 48.816 23.584H51.216C51.248 24.0427 51.408 24.4053 51.696 24.672C51.9947 24.9387 52.4 25.072 52.912 25.072C53.4347 25.072 53.8453 24.9493 54.144 24.704C54.4427 24.448 54.592 24.1173 54.592 23.712C54.592 23.3813 54.4907 23.1093 54.288 22.896C54.0853 22.6827 53.8293 22.5173 53.52 22.4C53.2213 22.272 52.8053 22.1333 52.272 21.984C51.5467 21.7707 50.9547 21.5627 50.496 21.36C50.048 21.1467 49.6587 20.832 49.328 20.416C49.008 19.9893 48.848 19.424 48.848 18.72C48.848 18.0587 49.0133 17.4827 49.344 16.992C49.6747 16.5013 50.1387 16.128 50.736 15.872C51.3333 15.6053 52.016 15.472 52.784 15.472C53.936 15.472 54.8693 15.7547 55.584 16.32C56.3093 16.8747 56.7093 17.6533 56.784 18.656H54.32C54.2987 18.272 54.1333 17.9573 53.824 17.712C53.5253 17.456 53.1253 17.328 52.624 17.328C52.1867 17.328 51.8347 17.44 51.568 17.664C51.312 17.888 51.184 18.2133 51.184 18.64C51.184 18.9387 51.28 19.1893 51.472 19.392C51.6747 19.584 51.92 19.744 52.208 19.872C52.5067 19.9893 52.9227 20.128 53.456 20.288C54.1813 20.5013 54.7733 20.7147 55.232 20.928C55.6907 21.1413 56.0853 21.4613 56.416 21.888C56.7467 22.3147 56.912 22.8747 56.912 23.568C56.912 24.1653 56.7573 24.72 56.448 25.232C56.1387 25.744 55.6853 26.1547 55.088 26.464C54.4907 26.7627 53.7813 26.912 52.96 26.912ZM67.094 22.176C67.094 22.496 67.0727 22.784 67.03 23.04H60.55C60.6033 23.68 60.8273 24.1813 61.222 24.544C61.6167 24.9067 62.102 25.088 62.678 25.088C63.51 25.088 64.102 24.7307 64.454 24.016H66.87C66.614 24.8693 66.1233 25.5733 65.398 26.128C64.6727 26.672 63.782 26.944 62.726 26.944C61.8727 26.944 61.1047 26.7573 60.422 26.384C59.75 26 59.222 25.4613 58.838 24.768C58.4647 24.0747 58.278 23.2747 58.278 22.368C58.278 21.4507 58.4647 20.6453 58.838 19.952C59.2113 19.2587 59.734 18.7253 60.406 18.352C61.078 17.9787 61.8513 17.792 62.726 17.792C63.5687 17.792 64.3207 17.9733 64.982 18.336C65.654 18.6987 66.1713 19.216 66.534 19.888C66.9073 20.5493 67.094 21.312 67.094 22.176ZM64.774 21.536C64.7633 20.96 64.5553 20.5013 64.15 20.16C63.7447 19.808 63.2487 19.632 62.662 19.632C62.1073 19.632 61.638 19.8027 61.254 20.144C60.8807 20.4747 60.6513 20.9387 60.566 21.536H64.774ZM68.153 22.368C68.153 21.4507 68.3397 20.6507 68.713 19.968C69.0863 19.2747 69.6037 18.7413 70.265 18.368C70.9263 17.984 71.6837 17.792 72.537 17.792C73.6357 17.792 74.5423 18.0693 75.257 18.624C75.9823 19.168 76.4677 19.936 76.713 20.928H74.297C74.169 20.544 73.9503 20.2453 73.641 20.032C73.3423 19.808 72.969 19.696 72.521 19.696C71.881 19.696 71.3743 19.9307 71.001 20.4C70.6277 20.8587 70.441 21.5147 70.441 22.368C70.441 23.2107 70.6277 23.8667 71.001 24.336C71.3743 24.7947 71.881 25.024 72.521 25.024C73.4277 25.024 74.0197 24.6187 74.297 23.808H76.713C76.4677 24.768 75.9823 25.5307 75.257 26.096C74.5317 26.6613 73.625 26.944 72.537 26.944C71.6837 26.944 70.9263 26.7573 70.265 26.384C69.6037 26 69.0863 25.4667 68.713 24.784C68.3397 24.0907 68.153 23.2853 68.153 22.368ZM86.722 17.936V26.8H84.466V25.68C84.178 26.064 83.7993 26.368 83.33 26.592C82.8713 26.8053 82.37 26.912 81.826 26.912C81.1327 26.912 80.5193 26.768 79.986 26.48C79.4527 26.1813 79.0313 25.7493 78.722 25.184C78.4233 24.608 78.274 23.9253 78.274 23.136V17.936H80.514V22.816C80.514 23.52 80.69 24.064 81.042 24.448C81.394 24.8213 81.874 25.008 82.482 25.008C83.1007 25.008 83.586 24.8213 83.938 24.448C84.29 24.064 84.466 23.52 84.466 22.816V17.936H86.722ZM91.1721 19.312C91.4601 18.8427 91.8335 18.4747 92.2921 18.208C92.7615 17.9413 93.2948 17.808 93.8921 17.808V20.16H93.3001C92.5961 20.16 92.0628 20.3253 91.7001 20.656C91.3481 20.9867 91.1721 21.5627 91.1721 22.384V26.8H88.9321V17.936H91.1721V19.312ZM103.641 22.176C103.641 22.496 103.62 22.784 103.577 23.04H97.0969C97.1502 23.68 97.3742 24.1813 97.7689 24.544C98.1635 24.9067 98.6489 25.088 99.2249 25.088C100.057 25.088 100.649 24.7307 101.001 24.016H103.417C103.161 24.8693 102.67 25.5733 101.945 26.128C101.22 26.672 100.329 26.944 99.2729 26.944C98.4195 26.944 97.6515 26.7573 96.9689 26.384C96.2969 26 95.7689 25.4613 95.3849 24.768C95.0115 24.0747 94.8249 23.2747 94.8249 22.368C94.8249 21.4507 95.0115 20.6453 95.3849 19.952C95.7582 19.2587 96.2809 18.7253 96.9529 18.352C97.6249 17.9787 98.3982 17.792 99.2729 17.792C100.116 17.792 100.868 17.9733 101.529 18.336C102.201 18.6987 102.718 19.216 103.081 19.888C103.454 20.5493 103.641 21.312 103.641 22.176ZM101.321 21.536C101.31 20.96 101.102 20.5013 100.697 20.16C100.292 19.808 99.7955 19.632 99.2089 19.632C98.6542 19.632 98.1849 19.8027 97.8009 20.144C97.4275 20.4747 97.1982 20.9387 97.1129 21.536H101.321ZM112.124 24.672H107.676L106.94 26.8H104.588L108.604 15.616H111.212L115.228 26.8H112.86L112.124 24.672ZM111.516 22.88L109.9 18.208L108.284 22.88H111.516ZM129.017 17.936L126.425 26.8H124.009L122.393 20.608L120.777 26.8H118.345L115.737 17.936H118.009L119.577 24.688L121.273 17.936H123.641L125.305 24.672L126.873 17.936H129.017ZM129.653 22.336C129.653 21.44 129.829 20.6453 130.181 19.952C130.544 19.2587 131.029 18.7253 131.637 18.352C132.256 17.9787 132.944 17.792 133.701 17.792C134.362 17.792 134.938 17.9253 135.429 18.192C135.93 18.4587 136.33 18.7947 136.629 19.2V17.936H138.885V26.8H136.629V25.504C136.341 25.92 135.941 26.2667 135.429 26.544C134.928 26.8107 134.346 26.944 133.685 26.944C132.938 26.944 132.256 26.752 131.637 26.368C131.029 25.984 130.544 25.4453 130.181 24.752C129.829 24.048 129.653 23.2427 129.653 22.336ZM136.629 22.368C136.629 21.824 136.522 21.36 136.309 20.976C136.096 20.5813 135.808 20.2827 135.445 20.08C135.082 19.8667 134.693 19.76 134.277 19.76C133.861 19.76 133.477 19.8613 133.125 20.064C132.773 20.2667 132.485 20.5653 132.261 20.96C132.048 21.344 131.941 21.8027 131.941 22.336C131.941 22.8693 132.048 23.3387 132.261 23.744C132.485 24.1387 132.773 24.4427 133.125 24.656C133.488 24.8693 133.872 24.976 134.277 24.976C134.693 24.976 135.082 24.8747 135.445 24.672C135.808 24.4587 136.096 24.16 136.309 23.776C136.522 23.3813 136.629 22.912 136.629 22.368ZM143.313 19.312C143.601 18.8427 143.974 18.4747 144.433 18.208C144.902 17.9413 145.435 17.808 146.033 17.808V20.16H145.441C144.737 20.16 144.203 20.3253 143.841 20.656C143.489 20.9867 143.313 21.5627 143.313 22.384V26.8H141.073V17.936H143.313V19.312ZM155.782 22.176C155.782 22.496 155.76 22.784 155.718 23.04H149.238C149.291 23.68 149.515 24.1813 149.91 24.544C150.304 24.9067 150.79 25.088 151.366 25.088C152.198 25.088 152.79 24.7307 153.142 24.016H155.558C155.302 24.8693 154.811 25.5733 154.086 26.128C153.36 26.672 152.47 26.944 151.414 26.944C150.56 26.944 149.792 26.7573 149.11 26.384C148.438 26 147.91 25.4613 147.526 24.768C147.152 24.0747 146.965 23.2747 146.965 22.368C146.965 21.4507 147.152 20.6453 147.526 19.952C147.899 19.2587 148.422 18.7253 149.094 18.352C149.766 17.9787 150.539 17.792 151.414 17.792C152.256 17.792 153.008 17.9733 153.67 18.336C154.342 18.6987 154.859 19.216 155.222 19.888C155.595 20.5493 155.782 21.312 155.782 22.176ZM153.462 21.536C153.451 20.96 153.243 20.5013 152.838 20.16C152.432 19.808 151.936 19.632 151.35 19.632C150.795 19.632 150.326 19.8027 149.942 20.144C149.568 20.4747 149.339 20.9387 149.254 21.536H153.462Z" fill="#6B7C4F"/>
</svg>
