<svg width="64" height="64" viewBox="0 0 64 64" fill="none" xmlns="http://www.w3.org/2000/svg">
<path d="M0 32C0 14.3269 14.3269 0 32 0C49.6731 0 64 14.3269 64 32C64 49.6731 49.6731 64 32 64C14.3269 64 0 49.6731 0 32Z" fill="#3CAB8C" fill-opacity="0.3"/>
<path d="M42.6668 33.3333C42.6668 40 38.0002 43.3333 32.4535 45.2667C32.163 45.3651 31.8475 45.3604 31.5602 45.2533C26.0002 43.3333 21.3335 40 21.3335 33.3333V24C21.3335 23.6464 21.474 23.3072 21.724 23.0572C21.9741 22.8072 22.3132 22.6667 22.6668 22.6667C25.3335 22.6667 28.6668 21.0667 30.9868 19.04C31.2693 18.7987 31.6286 18.6661 32.0002 18.6661C32.3717 18.6661 32.731 18.7987 33.0135 19.04C35.3468 21.08 38.6668 22.6667 41.3335 22.6667C41.6871 22.6667 42.0263 22.8072 42.2763 23.0572C42.5264 23.3072 42.6668 23.6464 42.6668 24V33.3333Z" stroke="#3CAB8C" stroke-width="2.66667" stroke-linecap="round" stroke-linejoin="round"/>
</svg>
