<svg width="80" height="80" viewBox="0 0 80 80" fill="none" xmlns="http://www.w3.org/2000/svg">
<g opacity="0.965943">
<mask id="path-1-inside-1_56_584" fill="white">
<path d="M0 16C0 7.16344 7.16344 0 16 0H64C72.8366 0 80 7.16344 80 16V64C80 72.8366 72.8366 80 64 80H16C7.16344 80 0 72.8366 0 64V16Z"/>
</mask>
<path d="M0 16C0 7.16344 7.16344 0 16 0H64C72.8366 0 80 7.16344 80 16V64C80 72.8366 72.8366 80 64 80H16C7.16344 80 0 72.8366 0 64V16Z" fill="#3CAB8C" fill-opacity="0.2"/>
<path d="M16 0V0.8H64V0V-0.8H16V0ZM80 16H79.2V64H80H80.8V16H80ZM64 80V79.2H16V80V80.8H64V80ZM0 64H0.8V16H0H-0.8V64H0ZM16 80V79.2C7.60527 79.2 0.8 72.3947 0.8 64H0H-0.8C-0.8 73.2784 6.72162 80.8 16 80.8V80ZM80 64H79.2C79.2 72.3947 72.3947 79.2 64 79.2V80V80.8C73.2784 80.8 80.8 73.2784 80.8 64H80ZM64 0V0.8C72.3947 0.8 79.2 7.60527 79.2 16H80H80.8C80.8 6.72162 73.2784 -0.8 64 -0.8V0ZM16 0V-0.8C6.72162 -0.8 -0.8 6.72162 -0.8 16H0H0.8C0.8 7.60527 7.60527 0.8 16 0.8V0Z" fill="#3CAB8C" fill-opacity="0.3" mask="url(#path-1-inside-1_56_584)"/>
<path d="M53.3333 41.6667C53.3333 50 47.5 54.1667 40.5666 56.5833C40.2036 56.7064 39.8092 56.7005 39.45 56.5667C32.5 54.1667 26.6666 50 26.6666 41.6667V30C26.6666 29.558 26.8422 29.134 27.1548 28.8215C27.4673 28.5089 27.8913 28.3333 28.3333 28.3333C31.6666 28.3333 35.8333 26.3333 38.7333 23.8C39.0864 23.4983 39.5355 23.3326 40 23.3326C40.4644 23.3326 40.9135 23.4983 41.2666 23.8C44.1833 26.35 48.3333 28.3333 51.6666 28.3333C52.1087 28.3333 52.5326 28.5089 52.8451 28.8215C53.1577 29.134 53.3333 29.558 53.3333 30V41.6667Z" stroke="#3CAB8C" stroke-width="3.33333" stroke-linecap="round" stroke-linejoin="round"/>
</g>
</svg>
