<svg width="17" height="21" viewBox="0 0 17 21" fill="none" xmlns="http://www.w3.org/2000/svg">
<path d="M16 4.5C15.9999 4.36755 15.9472 4.24015 15.8535 4.14648C15.7598 4.05286 15.6325 4 15.5 4C13.3386 4 10.7359 2.73551 8.93066 1.15723V1.15625C8.81009 1.05517 8.65747 1 8.5 1C8.34228 1 8.18903 1.05487 8.06836 1.15625C6.38575 2.62612 3.98504 3.83951 1.91016 3.98535L1.5 4C1.3675 4 1.24023 4.05286 1.14648 4.14648C1.05282 4.24015 1.00012 4.36755 1 4.5V11.5L1.00977 11.9375C1.105 14.0856 1.90453 15.702 3.12891 16.9561C4.44858 18.3076 6.28425 19.2603 8.33301 19.9678L8.34473 19.9717C8.42563 20.0018 8.51234 20.0103 8.59668 19.9971L8.67969 19.9766C10.7221 19.2642 12.5542 18.31 13.8721 16.958C15.1772 15.6189 16 13.8679 16 11.5V4.5ZM17 11.5C17 14.132 16.0727 16.1319 14.5879 17.6553C13.1167 19.1647 11.1206 20.1854 9.00488 20.9229L9 20.9238C8.67335 21.0344 8.3183 21.0296 7.99512 20.9092V20.9082C5.87839 20.176 3.88311 19.1598 2.41309 17.6543C1.01978 16.2271 0.117976 14.3802 0.0107422 11.9863L0 11.5V4.5C0.000119036 4.10234 0.158255 3.72065 0.439453 3.43945C0.720736 3.15829 1.10228 3 1.5 3L1.85059 2.9873C3.63367 2.85845 5.83117 1.78444 7.41113 0.404297L7.41504 0.400391C7.71743 0.142038 8.10227 0 8.5 0C8.84797 0 9.18615 0.108387 9.46777 0.308594L9.58496 0.400391L9.58887 0.404297C11.2836 1.886 13.6614 3 15.5 3C15.8977 3 16.2793 3.15829 16.5605 3.43945C16.8417 3.72065 16.9999 4.10234 17 4.5V11.5Z" fill="white"/>
</svg>
