<svg width="16" height="16" viewBox="0 0 16 16" fill="none" xmlns="http://www.w3.org/2000/svg">
<path d="M13.99 8.324C13.9275 9.48143 13.5311 10.596 12.8487 11.5329C12.1663 12.4699 11.2271 13.1891 10.1447 13.6037C9.06221 14.0183 7.88286 14.1104 6.74916 13.869C5.61545 13.6276 4.57594 13.063 3.75628 12.2434C2.93662 11.4239 2.3719 10.3844 2.13038 9.25074C1.88887 8.11706 1.9809 6.9377 2.39536 5.85521C2.80981 4.77273 3.52894 3.83346 4.46582 3.15096C5.4027 2.46846 6.51722 2.07194 7.67464 2.00933C7.94464 1.99467 8.08597 2.316 7.94264 2.54467C7.46323 3.3117 7.25796 4.21858 7.3603 5.1173C7.46265 6.01602 7.86659 6.85352 8.50619 7.49312C9.14579 8.13272 9.98329 8.53665 10.882 8.639C11.7807 8.74135 12.6876 8.53607 13.4546 8.05667C13.684 7.91333 14.0046 8.054 13.99 8.324Z" stroke="#2D2D2D" stroke-width="1.33333" stroke-linecap="round" stroke-linejoin="round"/>
</svg>
